<?xml version="1.0" encoding="utf-8"?>
<!-- Generator: Adobe Illustrator 28.3.0, SVG Export Plug-In . SVG Version: 6.00 Build 0)  -->
<svg version="1.1" id="Capa_1" xmlns="http://www.w3.org/2000/svg" xmlns:xlink="http://www.w3.org/1999/xlink" x="0px" y="0px"
	 viewBox="0 0 32 32" style="enable-background:new 0 0 32 32;" xml:space="preserve">
<style type="text/css">
	.st0{opacity:0.66;}
	.st1{fill:#E50695;}
	.st2{fill:#54C8E8;}
</style>
<g>
	<g>
		<g id="B_00000142146689903412347900000015241081295445052562_">
			<g>
				<g class="st0">
					<image style="overflow:visible;" width="102" height="98" xlink:href="DC529FD9.png"  transform="matrix(1 0 0 1 -36 -33)">
					</image>
				</g>
				<g class="st0">
					<image style="overflow:visible;" width="102" height="98" xlink:href="DC529FDB.png"  transform="matrix(1 0 0 1 -36 -33)">
					</image>
				</g>
				<path class="st1" d="M30.2,28.5c0-0.1-0.1-0.1-0.1-0.2c-0.2-1.3-0.6-2.1-1.6-2.8c0-0.1-0.1-0.1-0.1-0.2
					c-0.3-0.5-0.6-1.1-0.9-1.6c-0.1-0.1,0.6-0.3,1.3-0.3c0,0-0.7,0-1.5,0c-0.1-0.1-0.1-0.2-0.2-0.3h-1.4c-0.1-0.2-0.2-0.4-0.3-0.5
					h1.4c-0.9-1.5-1.7-3-2.4-4.2h-2c0,0-0.1-0.1-0.1-0.1c0,0-0.1-0.1-0.1-0.1h2c-0.2-0.4-0.4-0.7-0.6-1h-1.2
					C22,16.4,21.8,16,21.8,16s0,0,0,0H23c-0.1-0.2-1.1-1.8-2.2-3.9c-0.3-0.5,2.4-0.7,2.4-1.2c0-0.6-3.5-0.7-3.8-1.3
					c0,0,0-0.1-0.1-0.1c-0.6-1.1-1.2-2.1-1.8-3h-1c-0.1-0.3-0.3-0.5-0.4-0.7h1c-0.9-1.6-1.5-2.6-1.5-2.6S15,4.3,14.1,5.8h-1
					C13,6,12.8,6.3,12.7,6.5h1c-0.6,1-1.3,2.2-1.9,3.3c-0.1,0.1-0.1,0.3,0.1,0.4c0.5,0.3,1.5,0.3,1.4,0.7c-0.1,0.4-4.4,0.1-4.6,0.5
					c-0.3,0.6,2.1,0.1,0.5,3h1.2c0,0,0,0,0,0c-0.1,0.1-0.1,0.2-0.2,0.3H8.9C8.5,15.5,8.2,16,8.2,16s-2,3.4-3.9,6.8H2.7
					c-0.1,0.2-0.2,0.4-0.3,0.5H4c-0.2,0.3-0.3,0.5-0.5,0.8h1.4c-0.2,0.3-0.3,0.5-0.4,0.8c0,0.1-0.1,0.1-0.1,0.2c0,0,0,0.1,0,0.1H2.9
					c-0.2,1.3-0.8,2.3-1.9,3.1C1,28.4,1,28.4,1,28.5c-0.1,0.2-0.2,0.3-0.2,0.3h29.6C30.4,28.8,30.3,28.7,30.2,28.5z M6.3,25.6
					l0.2-0.4H8l0.6-1.1H7.2l0.5-0.8H6.1l0.3-0.5H8l3-5.2l1.6-2.8h1.2l0.2-0.3h-1.2l0.7-1.3c0.5-0.9-1.7-0.8-1.5-1.2
					c0.1-0.3,4.1-0.4,4.3-0.8c0.3-0.3-1.4-0.3-1-0.9c0.3-0.5,0.4-0.7,0.4-0.7s0.2,0.3,0.4,0.7c0,0,0,0.1,0.1,0.1
					c0.4,0.6,3.3,0.3,3.6,0.7c0.2,0.4-4.7,1-4.7,1.4c0.1,0.5,2.6,0.5,3,1.3c0.5,0.8,0.9,1.6,1.3,2.2h-1.2c0.1,0.2,0.2,0.3,0.3,0.4
					c0.1,0.2,0.3,0.5,0.4,0.6h1.2c0.2,0.3,0.3,0.5,0.3,0.5l0.3,0.5h-2l0.2,0.3h2l2.4,4.2h-1.4l0.3,0.5h1.4l0.2,0.3h1.3
					c-0.2,0-0.1,0-0.2,0c-0.8,0.1-0.9,0.2-0.9,0.2l1.1,2H6.3z"/>
				<path class="st2" d="M31.8,28.5c0-0.1-0.1-0.1-0.1-0.2c-0.2-1.3-0.6-2.1-1.6-2.8c0-0.1-0.1-0.1-0.1-0.2
					c-0.3-0.5-0.6-1.1-0.9-1.6c-0.1-0.1,0.6-0.3,1.3-0.3c0,0-0.7,0-1.5,0c-0.1-0.1-0.1-0.2-0.2-0.3h-1.4c-0.1-0.2-0.2-0.4-0.3-0.5
					h1.4c-0.9-1.5-1.7-3-2.4-4.2h-2c0,0-0.1-0.1-0.1-0.1c0,0-0.1-0.1-0.1-0.1h2c-0.2-0.4-0.4-0.7-0.6-1H24c-0.4-0.7-0.6-1.1-0.6-1.1
					s0,0,0,0h1.2c-0.1-0.2-1.1-1.8-2.2-3.9c-0.3-0.5,2.4-0.7,2.4-1.2c0-0.6-3.5-0.7-3.8-1.3c0,0,0-0.1-0.1-0.1
					c-0.6-1.1-1.2-2.1-1.8-3h-1C18,6.3,17.8,6,17.7,5.8h1c-0.9-1.6-1.5-2.6-1.5-2.6s-0.6,1.1-1.5,2.6h-1c-0.1,0.2-0.3,0.5-0.4,0.7h1
					c-0.6,1-1.3,2.2-1.9,3.3c-0.1,0.1-0.1,0.3,0.1,0.4c0.5,0.3,1.5,0.3,1.4,0.7c-0.1,0.4-4.4,0.1-4.6,0.5c-0.3,0.6,2.1,0.1,0.5,3
					h1.2c0,0,0,0,0,0c-0.1,0.1-0.1,0.2-0.2,0.3h-1.2C10.1,15.5,9.8,16,9.8,16s-2,3.4-3.9,6.8H4.3c-0.1,0.2-0.2,0.4-0.3,0.5h1.6
					c-0.2,0.3-0.3,0.5-0.5,0.8h1.4c-0.2,0.3-0.3,0.5-0.4,0.8C6,24.9,6,25,5.9,25.1c0,0,0,0.1,0,0.1H4.5c-0.2,1.3-0.8,2.3-1.9,3.1
					c0,0.1-0.1,0.1-0.1,0.2c-0.1,0.2-0.2,0.3-0.2,0.3H32C32,28.8,31.9,28.7,31.8,28.5z M7.9,25.6l0.2-0.4h1.4l0.6-1.1H8.8l0.5-0.8
					H7.7L8,22.8h1.6l3-5.2l1.6-2.8h1.2l0.2-0.3h-1.2l0.7-1.3c0.5-0.9-1.7-0.8-1.5-1.2c0.1-0.3,4.1-0.4,4.3-0.8
					c0.3-0.3-1.4-0.3-1-0.9c0.3-0.5,0.4-0.7,0.4-0.7s0.2,0.3,0.4,0.7c0,0,0,0.1,0.1,0.1c0.4,0.6,3.3,0.3,3.6,0.7
					c0.2,0.4-4.7,1-4.7,1.4c0.1,0.5,2.6,0.5,3,1.3c0.5,0.8,0.9,1.6,1.3,2.2h-1.2c0.1,0.2,0.2,0.3,0.3,0.4c0.1,0.2,0.3,0.5,0.4,0.6
					h1.2c0.2,0.3,0.3,0.5,0.3,0.5l0.3,0.5h-2l0.2,0.3h2l2.4,4.2h-1.4l0.3,0.5H25l0.2,0.3h1.3c-0.2,0-0.1,0-0.2,0
					c-0.8,0.1-0.9,0.2-0.9,0.2l1.1,2H7.9z"/>
				<path d="M31,28.5c0-0.1-0.1-0.1-0.1-0.2c-0.2-1.3-0.6-2.1-1.6-2.8c0-0.1-0.1-0.1-0.1-0.2c-0.3-0.5-0.6-1.1-0.9-1.6
					c-0.1-0.1,0.6-0.3,1.3-0.3c0,0-0.7,0-1.5,0c-0.1-0.1-0.1-0.2-0.2-0.3h-1.4c-0.1-0.2-0.2-0.4-0.3-0.5h1.4c-0.9-1.5-1.7-3-2.4-4.2
					h-2c0,0-0.1-0.1-0.1-0.1c0,0-0.1-0.1-0.1-0.1h2c-0.2-0.4-0.4-0.7-0.6-1h-1.2c-0.4-0.7-0.6-1.1-0.6-1.1s0,0,0,0h1.2
					c-0.1-0.2-1.1-1.8-2.2-3.9c-0.3-0.5,2.4-0.7,2.4-1.2c0-0.6-3.5-0.7-3.8-1.3c0,0,0-0.1-0.1-0.1c-0.6-1.1-1.2-2.1-1.8-3h-1
					C17.2,6.3,17,6,16.9,5.8h1c-0.9-1.6-1.5-2.6-1.5-2.6s-0.6,1.1-1.5,2.6h-1c-0.1,0.2-0.3,0.5-0.4,0.7h1c-0.6,1-1.3,2.2-1.9,3.3
					c-0.1,0.1-0.1,0.3,0.1,0.4c0.5,0.3,1.5,0.3,1.4,0.7c-0.1,0.4-4.4,0.1-4.6,0.5c-0.3,0.6,2.1,0.1,0.5,3h1.2c0,0,0,0,0,0
					c-0.1,0.1-0.1,0.2-0.2,0.3H9.7C9.3,15.5,9,16,9,16s-2,3.4-3.9,6.8H3.5c-0.1,0.2-0.2,0.4-0.3,0.5h1.6c-0.2,0.3-0.3,0.5-0.5,0.8
					h1.4c-0.2,0.3-0.3,0.5-0.4,0.8c0,0.1-0.1,0.1-0.1,0.2c0,0,0,0.1,0,0.1H3.7c-0.2,1.3-0.8,2.3-1.9,3.1c0,0.1-0.1,0.1-0.1,0.2
					c-0.1,0.2-0.2,0.3-0.2,0.3h29.6C31.2,28.8,31.1,28.7,31,28.5z M7.1,25.6l0.2-0.4h1.4l0.6-1.1H8l0.5-0.8H6.9l0.3-0.5h1.6l3-5.2
					l1.6-2.8h1.2l0.2-0.3h-1.2l0.7-1.3c0.5-0.9-1.7-0.8-1.5-1.2c0.1-0.3,4.1-0.4,4.3-0.8c0.3-0.3-1.4-0.3-1-0.9
					c0.3-0.5,0.4-0.7,0.4-0.7s0.2,0.3,0.4,0.7c0,0,0,0.1,0.1,0.1c0.4,0.6,3.3,0.3,3.6,0.7c0.2,0.4-4.7,1-4.7,1.4
					c0.1,0.5,2.6,0.5,3,1.3c0.5,0.8,0.9,1.6,1.3,2.2h-1.2c0.1,0.2,0.2,0.3,0.3,0.4c0.1,0.2,0.3,0.5,0.4,0.6h1.2
					c0.2,0.3,0.3,0.5,0.3,0.5l0.3,0.5h-2l0.2,0.3h2l2.4,4.2h-1.4l0.3,0.5h1.4l0.2,0.3h1.3c-0.2,0-0.1,0-0.2,0
					c-0.8,0.1-0.9,0.2-0.9,0.2l1.1,2H7.1z"/>
			</g>
		</g>
	</g>
</g>
</svg>
