<?xml version="1.0" encoding="utf-8"?>
<!-- Generator: Adobe Illustrator 28.3.0, SVG Export Plug-In . SVG Version: 6.00 Build 0)  -->
<svg version="1.1" id="Capa_1" xmlns="http://www.w3.org/2000/svg" xmlns:xlink="http://www.w3.org/1999/xlink" x="0px" y="0px"
	 viewBox="0 0 176 48" style="enable-background:new 0 0 176 48;" xml:space="preserve">
<style type="text/css">
	.st0{fill:#FFFFFF;}
	.st1{opacity:0.33;}
	.st2{fill:#E50695;}
	.st3{fill:#54C8E8;}
</style>
<g>
	<g>
		<path class="st0" d="M8.9,20.1c0.8-0.9,1.8-1.6,2.9-2.2c1.1-0.5,2.3-0.8,3.6-0.8c1.8,0,3.4,0.5,4.8,1.4c1.4,0.9,2.5,2.2,3.3,3.7
			l5-3.2c-0.7-1.1-1.5-2.1-2.4-3c-0.9-0.9-2-1.7-3.1-2.3c-1.1-0.6-2.3-1.1-3.6-1.5c-1.3-0.3-2.6-0.5-4-0.5c-2.1,0-4.1,0.4-6,1.2
			c-1.9,0.8-3.5,1.9-4.9,3.3c-1.4,1.4-2.5,3-3.3,4.9c-0.8,1.9-1.2,3.9-1.2,6c0,2.1,0.4,4.1,1.2,6c0.8,1.9,1.9,3.5,3.3,4.9
			c1.4,1.4,3,2.5,4.9,3.3c1.9,0.8,3.9,1.2,6,1.2c1.4,0,2.7-0.2,4-0.5c1.3-0.3,2.5-0.8,3.6-1.5c1.1-0.6,2.1-1.4,3.1-2.3
			c0.9-0.9,1.7-1.9,2.4-3l-5-3.2c-0.8,1.6-1.9,2.8-3.3,3.7c-1.4,0.9-3,1.4-4.8,1.4c-1.3,0-2.5-0.3-3.6-0.8c-1.1-0.5-2.1-1.3-2.9-2.2
			c-0.8-0.9-1.5-2-2-3.2c-0.5-1.2-0.7-2.5-0.7-3.9s0.2-2.7,0.7-3.9C7.4,22.1,8.1,21,8.9,20.1z"/>
		<g>
			<polygon class="st0" points="54.9,24.6 42.4,24.6 45.2,30.2 54.9,30.2 54.9,42.2 61.1,42.2 61.1,12 54.9,12 			"/>
			<rect x="35.3" y="12" class="st0" width="6.3" height="30.2"/>
		</g>
		<path class="st0" d="M141.4,16.2c-1.4-1.4-2.9-2.5-4.8-3.3c-1.8-0.8-3.8-1.2-6-1.2c-2.1,0-4.1,0.4-6,1.2c-1.8,0.8-3.4,1.9-4.8,3.3
			c-1.4,1.4-2.4,3-3.2,4.9c-0.8,1.9-1.1,3.9-1.1,6c0,2.1,0.4,4.1,1.1,6c0.8,1.9,1.8,3.5,3.2,4.9c1.4,1.4,2.9,2.5,4.8,3.3
			c1.8,0.8,3.8,1.2,6,1.2V37c-1.3,0-2.5-0.3-3.6-0.8c-1.1-0.5-2-1.2-2.8-2.1c-0.8-0.9-1.4-1.9-1.9-3.1c-0.4-1.2-0.7-2.5-0.7-3.8
			c0-1.4,0.2-2.6,0.7-3.8c0.4-1.2,1.1-2.3,1.9-3.1c0.8-0.9,1.7-1.6,2.8-2.1c1.1-0.5,2.3-0.8,3.6-0.8c1.3,0,2.5,0.3,3.6,0.8
			c1.1,0.5,2,1.2,2.8,2.1c0.8,0.9,1.4,1.9,1.8,3.1c0.4,1.2,0.7,2.5,0.7,3.8c0,1.3-0.2,2.5-0.6,3.7c-0.4,1.2-1,2.2-1.7,3.1
			c-0.7,0.9-1.6,1.6-2.6,2.2c-1,0.6-2.1,0.9-3.3,1l3,5.1c1.7-0.4,3.2-1.1,4.6-2c1.4-0.9,2.6-2.1,3.6-3.4c1-1.3,1.8-2.8,2.3-4.4
			c0.5-1.6,0.8-3.4,0.8-5.2c0-2.1-0.4-4.1-1.1-6C143.8,19.2,142.8,17.6,141.4,16.2z"/>
		<path class="st0" d="M175.3,29.9c-0.5-0.9-1.1-1.7-2-2.4c-0.8-0.7-1.8-1.2-3-1.7c-1.2-0.5-2.4-0.9-3.8-1.2c-1.1-0.3-2.1-0.6-3-0.9
			c-0.9-0.3-1.6-0.6-2.2-0.9c-0.6-0.3-1-0.7-1.3-1.1c-0.3-0.4-0.5-0.9-0.5-1.5c0-0.3,0.1-0.6,0.3-1c0.2-0.3,0.5-0.7,0.8-0.9
			c0.3-0.3,0.8-0.5,1.3-0.7c0.5-0.2,1.2-0.3,1.9-0.3c1.2,0,2.4,0.2,3.5,0.7c1.1,0.5,2.3,1.3,3.5,2.5l4.9-3.2c-0.5-0.6-1.1-1.3-1.8-2
			c-0.7-0.7-1.6-1.3-2.6-1.8c-1-0.5-2.1-1-3.3-1.3c-1.2-0.3-2.6-0.5-4.1-0.5c-1.5,0-2.8,0.2-4.1,0.6c-1.3,0.4-2.4,1-3.3,1.8
			c-0.9,0.8-1.7,1.7-2.2,2.9c-0.5,1.1-0.8,2.4-0.8,3.8c0,1.3,0.2,2.4,0.7,3.4c0.5,0.9,1.1,1.8,2,2.4c0.9,0.7,1.9,1.2,3.1,1.7
			c1.2,0.5,2.6,0.9,4.2,1.3c1.3,0.3,2.3,0.6,3.1,1c0.8,0.3,1.5,0.7,2,1c0.5,0.4,0.8,0.7,1,1.1c0.2,0.4,0.3,0.8,0.3,1.2
			c0,0.6-0.1,1.1-0.4,1.4c-0.3,0.4-0.7,0.7-1.1,1c-0.5,0.3-1,0.4-1.5,0.6c-0.6,0.1-1.1,0.2-1.7,0.2c-0.9,0-1.6-0.1-2.4-0.3
			c-0.7-0.2-1.4-0.4-2-0.8c-0.6-0.3-1.2-0.7-1.7-1.2c-0.5-0.5-1.1-1-1.6-1.6l-5,3.2c0.4,0.8,1.1,1.6,1.9,2.3c0.8,0.7,1.8,1.4,2.9,2
			c1.1,0.6,2.3,1.1,3.6,1.4c1.3,0.4,2.7,0.5,4.2,0.5c1.6,0,3-0.2,4.4-0.7c1.3-0.4,2.5-1.1,3.5-1.9c1-0.8,1.8-1.8,2.3-2.9
			c0.6-1.1,0.8-2.4,0.8-3.8v-0.1C176,31.9,175.8,30.8,175.3,29.9z"/>
		<g id="B_00000127018806456284830230000004428920003116961964_">
			<g>
				<g class="st1">
					
						<image style="overflow:visible;" width="478" height="454" xlink:href="6E7E60BE.png"  transform="matrix(0.24 0 0 0.24 31.44 -30.72)">
					</image>
				</g>
				<g class="st1">
					
						<image style="overflow:visible;" width="478" height="454" xlink:href="6E7E60C2.png"  transform="matrix(0.24 0 0 0.24 31.44 -30.72)">
					</image>
				</g>
				<path class="st2" d="M110.9,41.7c0-0.1-0.1-0.2-0.1-0.3c-0.3-1.8-0.9-3-2.3-4.1c-0.1-0.1-0.1-0.2-0.2-0.3
					c-0.4-0.7-0.9-1.5-1.3-2.3c-0.1-0.1,0.8-0.4,1.9-0.4c0,0-1,0-2.1,0c-0.1-0.2-0.2-0.3-0.3-0.5h-2c-0.2-0.3-0.3-0.5-0.5-0.8h2
					c-1.2-2.1-2.5-4.3-3.5-6h-2.9c0-0.1-0.1-0.1-0.1-0.2c0-0.1-0.1-0.1-0.1-0.2h2.9c-0.3-0.5-0.6-1-0.8-1.4h-1.7
					c-0.6-1-0.9-1.6-0.9-1.6s0,0,0,0h1.7c-0.2-0.3-1.5-2.6-3.2-5.6c-0.4-0.8,3.4-1,3.4-1.7c0-0.9-5-1-5.4-1.8c0,0-0.1-0.1-0.1-0.1
					c-0.9-1.6-1.8-3.1-2.5-4.4h-1.4c-0.2-0.4-0.4-0.7-0.6-1.1h1.4c-1.3-2.2-2.2-3.7-2.2-3.7S89,6.9,87.8,9.1h-1.4
					c-0.2,0.3-0.4,0.7-0.6,1.1h1.4c-0.9,1.5-1.8,3.1-2.8,4.8c-0.1,0.2-0.2,0.5,0.1,0.6c0.7,0.4,2.2,0.5,2,1
					c-0.2,0.5-6.4,0.1-6.7,0.7c-0.4,0.9,3,0.1,0.7,4.4h1.7c0,0,0,0,0,0c-0.1,0.1-0.1,0.3-0.2,0.4h-1.7c-0.6,1.1-1,1.7-1,1.7
					s-2.9,4.9-5.6,9.7h-2.3c-0.2,0.3-0.3,0.5-0.5,0.8h2.3c-0.2,0.4-0.4,0.8-0.7,1.1h2c-0.2,0.4-0.4,0.7-0.6,1.1
					c-0.1,0.1-0.1,0.2-0.2,0.3c0,0.1,0,0.1,0,0.2h-2c-0.2,1.9-1.1,3.3-2.7,4.5c-0.1,0.1-0.1,0.2-0.1,0.2c-0.2,0.3-0.3,0.5-0.3,0.5
					h42.6C111.2,42.2,111.1,42,110.9,41.7z M76.6,37.6L77,37h2l0.9-1.6h-2l0.7-1.1h-2.3l0.5-0.8H79l4.3-7.4l2.3-4h1.7l0.2-0.4h-1.7
					l1-1.8c0.7-1.3-2.5-1.1-2.2-1.8c0.2-0.5,5.9-0.6,6.2-1.2c0.4-0.5-2-0.4-1.5-1.3c0.4-0.7,0.6-1.1,0.6-1.1s0.2,0.4,0.6,1.1
					c0,0.1,0.1,0.1,0.1,0.2c0.5,0.9,4.8,0.4,5.1,1c0.3,0.5-6.8,1.4-6.7,2c0.1,0.8,3.8,0.7,4.4,1.8c0.7,1.1,1.3,2.2,1.8,3.2h-1.7
					c0.1,0.2,0.3,0.4,0.4,0.6c0.2,0.4,0.4,0.7,0.5,0.9h1.7c0.3,0.5,0.4,0.7,0.4,0.7l0.4,0.7h-2.9l0.2,0.4h2.9l3.5,6h-2l0.5,0.8h2
					l0.3,0.5h1.8c-0.3,0-0.2,0-0.4,0.1c-1.2,0.1-1.2,0.3-1.2,0.3l1.6,2.8H76.6z"/>
				<path class="st3" d="M113.2,41.7c0-0.1-0.1-0.2-0.1-0.3c-0.3-1.8-0.9-3-2.3-4.1c-0.1-0.1-0.1-0.2-0.2-0.3
					c-0.4-0.7-0.9-1.5-1.3-2.3c-0.1-0.1,0.8-0.4,1.9-0.4c0,0-1,0-2.1,0c-0.1-0.2-0.2-0.3-0.3-0.5h-2c-0.2-0.3-0.3-0.5-0.5-0.8h2
					c-1.2-2.1-2.5-4.3-3.5-6h-2.9c0-0.1-0.1-0.1-0.1-0.2c0-0.1-0.1-0.1-0.1-0.2h2.9c-0.3-0.5-0.6-1-0.8-1.4H102
					c-0.6-1-0.9-1.6-0.9-1.6s0,0,0,0h1.7c-0.2-0.3-1.5-2.6-3.2-5.6c-0.4-0.8,3.4-1,3.4-1.7c0-0.9-5-1-5.4-1.8c0,0-0.1-0.1-0.1-0.1
					c-0.9-1.6-1.8-3.1-2.5-4.4h-1.4c-0.2-0.4-0.4-0.7-0.6-1.1h1.4c-1.3-2.2-2.2-3.7-2.2-3.7s-0.9,1.5-2.2,3.7h-1.4
					c-0.2,0.3-0.4,0.7-0.6,1.1h1.4c-0.9,1.5-1.8,3.1-2.8,4.8c-0.1,0.2-0.2,0.5,0.1,0.6c0.7,0.4,2.2,0.5,2,1
					c-0.2,0.5-6.4,0.1-6.7,0.7c-0.4,0.9,3,0.1,0.7,4.4h1.7c0,0,0,0,0,0c-0.1,0.1-0.1,0.3-0.2,0.4h-1.7c-0.6,1.1-1,1.7-1,1.7
					s-2.9,4.9-5.6,9.7h-2.3c-0.2,0.3-0.3,0.5-0.5,0.8h2.3c-0.2,0.4-0.4,0.8-0.7,1.1h2c-0.2,0.4-0.4,0.7-0.6,1.1
					c-0.1,0.1-0.1,0.2-0.2,0.3c0,0.1,0,0.1,0,0.2h-2c-0.2,1.9-1.1,3.3-2.7,4.5c-0.1,0.1-0.1,0.2-0.1,0.2c-0.2,0.3-0.3,0.5-0.3,0.5
					h42.6C113.5,42.2,113.4,42,113.2,41.7z M78.9,37.6l0.4-0.6h2l0.9-1.6h-2l0.7-1.1h-2.3l0.5-0.8h2.3l4.3-7.4l2.3-4h1.7l0.2-0.4H88
					l1-1.8c0.7-1.3-2.5-1.1-2.2-1.8c0.2-0.5,5.9-0.6,6.2-1.2c0.4-0.5-2-0.4-1.5-1.3c0.4-0.7,0.6-1.1,0.6-1.1s0.2,0.4,0.6,1.1
					c0,0.1,0.1,0.1,0.1,0.2c0.5,0.9,4.8,0.4,5.1,1c0.3,0.5-6.8,1.4-6.7,2c0.1,0.8,3.8,0.7,4.4,1.8c0.7,1.1,1.3,2.2,1.8,3.2h-1.7
					c0.1,0.2,0.3,0.4,0.4,0.6c0.2,0.4,0.4,0.7,0.5,0.9h1.7c0.3,0.5,0.4,0.7,0.4,0.7l0.4,0.7h-2.9l0.2,0.4h2.9l3.5,6h-2l0.5,0.8h2
					l0.3,0.5h1.8c-0.3,0-0.2,0-0.4,0.1c-1.2,0.1-1.2,0.3-1.2,0.3l1.6,2.8H78.9z"/>
				<path class="st0" d="M112.1,41.7c0-0.1-0.1-0.2-0.1-0.3c-0.3-1.8-0.9-3-2.3-4.1c-0.1-0.1-0.1-0.2-0.2-0.3
					c-0.4-0.7-0.9-1.5-1.3-2.3c-0.1-0.1,0.8-0.4,1.9-0.4c0,0-1,0-2.1,0c-0.1-0.2-0.2-0.3-0.3-0.5h-2c-0.2-0.3-0.3-0.5-0.5-0.8h2
					c-1.2-2.1-2.5-4.3-3.5-6h-2.9c0-0.1-0.1-0.1-0.1-0.2c0-0.1-0.1-0.1-0.1-0.2h2.9c-0.3-0.5-0.6-1-0.8-1.4h-1.7
					c-0.6-1-0.9-1.6-0.9-1.6s0,0,0,0h1.7c-0.2-0.3-1.5-2.6-3.2-5.6c-0.4-0.8,3.4-1,3.4-1.7c0-0.9-5-1-5.4-1.8c0,0-0.1-0.1-0.1-0.1
					c-0.9-1.6-1.8-3.1-2.5-4.4h-1.4c-0.2-0.4-0.4-0.7-0.6-1.1h1.4c-1.3-2.2-2.2-3.7-2.2-3.7s-0.9,1.5-2.2,3.7h-1.4
					c-0.2,0.3-0.4,0.7-0.6,1.1h1.4c-0.9,1.5-1.8,3.1-2.8,4.8c-0.1,0.2-0.2,0.5,0.1,0.6c0.7,0.4,2.2,0.5,2,1
					c-0.2,0.5-6.4,0.1-6.7,0.7c-0.4,0.9,3,0.1,0.7,4.4h1.7c0,0,0,0,0,0c-0.1,0.1-0.1,0.3-0.2,0.4h-1.7c-0.6,1.1-1,1.7-1,1.7
					s-2.9,4.9-5.6,9.7h-2.3c-0.2,0.3-0.3,0.5-0.5,0.8h2.3c-0.2,0.4-0.4,0.8-0.7,1.1h2c-0.2,0.4-0.4,0.7-0.6,1.1
					c-0.1,0.1-0.1,0.2-0.2,0.3c0,0.1,0,0.1,0,0.2h-2c-0.2,1.9-1.1,3.3-2.7,4.5c-0.1,0.1-0.1,0.2-0.1,0.2c-0.2,0.3-0.3,0.5-0.3,0.5
					h42.6C112.4,42.2,112.3,42,112.1,41.7z M77.7,37.6l0.4-0.6h2l0.9-1.6h-2l0.7-1.1h-2.3l0.5-0.8h2.3l4.3-7.4l2.3-4h1.7l0.2-0.4
					h-1.7l1-1.8c0.7-1.3-2.5-1.1-2.2-1.8c0.2-0.5,5.9-0.6,6.2-1.2c0.4-0.5-2-0.4-1.5-1.3c0.4-0.7,0.6-1.1,0.6-1.1s0.2,0.4,0.6,1.1
					c0,0.1,0.1,0.1,0.1,0.2c0.5,0.9,4.8,0.4,5.1,1c0.3,0.5-6.8,1.4-6.7,2c0.1,0.8,3.8,0.7,4.4,1.8c0.7,1.1,1.3,2.2,1.8,3.2h-1.7
					c0.1,0.2,0.3,0.4,0.4,0.6c0.2,0.4,0.4,0.7,0.5,0.9h1.7c0.3,0.5,0.4,0.7,0.4,0.7l0.4,0.7h-2.9l0.2,0.4h2.9l3.5,6h-2l0.5,0.8h2
					l0.3,0.5h1.8c-0.3,0-0.2,0-0.4,0.1c-1.2,0.1-1.2,0.3-1.2,0.3l1.6,2.8H77.7z"/>
			</g>
		</g>
	</g>
</g>
</svg>
